# xmcd CD database file
#
# Track frame offsets:
#	150
#	18157
#	38732
#	54727
#	74582
#	97927
#	115130
#	134625
#	153450
#	170227
#	189955
#	208797
#	227927
#
# Disc length: 3104 seconds
#
# Revision: 1
# Processed by: cddbd v1.5.2PL0 Copyright (c) Steve Scherf et al.
# Submitted via: CDex 1.51
#
DISCID=b90c1e0d
DTITLE=A+ - Latch-Key Child
DYEAR=1998
DGENRE=Hip-Hop
TTITLE0=Next Level (Intro)/Enter Hempstead
TTITLE1=Move On
TTITLE2=Me and My Microphone
TTITLE3=All I see
TTITLE4=Gusto Ft. Prodigy from Mobb Deep
TTITLE5=Hard Times
TTITLE6=A+Z Ft. AZ
TTITLE7=Wanna Be Rich
TTITLE8=My Thing
TTITLE9=Parkside Coalition
TTITLE10=Party Joint
TTITLE11=Alpha 2 Omega
TTITLE12=Shout it Out (Outro)
EXTD=YEAR: 1998
EXTT0=
EXTT1=
EXTT2=
EXTT3=
EXTT4=
EXTT5=
EXTT6=
EXTT7=
EXTT8=
EXTT9=
EXTT10=
EXTT11=
EXTT12=
PLAYORDER=
